<svg xmlns="http://www.w3.org/2000/svg" viewBox="0 0 64 64"><g id="_29-tree" data-name="29-tree"><path d="M47.69,23a20.189,20.189,0,0,0-6.19-5.37,19.974,19.974,0,0,0-6.58-2.3,23.563,23.563,0,0,0-8.71.16,20.059,20.059,0,0,0-9.49,4.87,19.66,19.66,0,0,0-2.87,3.27A3.216,3.216,0,0,1,8,21.78V21C8,9.95,18.73,1,32,1S56,9.95,56,21v.78A3.218,3.218,0,0,1,52.78,25h-2a3.2,3.2,0,0,1-2.63-1.37C48.02,23.44,47.86,23.23,47.69,23Z" style="fill:#6d9e00"/><path d="M52.78,19h-2a3.2,3.2,0,0,1-2.63-1.37c-.13-.19-.29-.4-.46-.63a20.189,20.189,0,0,0-6.19-5.37,19.974,19.974,0,0,0-6.58-2.3,23.563,23.563,0,0,0-8.71.16,20.059,20.059,0,0,0-9.49,4.87,19.66,19.66,0,0,0-2.87,3.27,3.2,3.2,0,0,1-5.439-.3A16.841,16.841,0,0,0,8,21v.78a3.216,3.216,0,0,0,5.85,1.85,19.66,19.66,0,0,1,2.87-3.27,20.059,20.059,0,0,1,9.49-4.87,23.563,23.563,0,0,1,8.71-.16,19.974,19.974,0,0,1,6.58,2.3A20.189,20.189,0,0,1,47.69,23c.17.23.33.44.46.63A3.2,3.2,0,0,0,50.78,25h2A3.218,3.218,0,0,0,56,21.78V21a16.841,16.841,0,0,0-.411-3.675A3.2,3.2,0,0,1,52.78,19Z" style="fill:#496900"/><path d="M41.5,17.63c-.289-.163-.6-.313-.912-.466l-7.369,9.211a.812.812,0,0,0-.062.121l2.735-10.931.006-.027c-.325-.07-.639-.152-.978-.208-.321-.056-.666-.087-1-.129L31.387,25.329,27.215,15.3c-.341.056-.677.116-1,.186s-.66.162-.986.248l4.083,9.8L17.538,19.651q-.43.354-.818.709c-.271.249-.517.5-.757.739l13.59,6.8A1,1,0,0,0,30,28h0V62a1,1,0,0,0,1,1h2a1,1,0,0,0,1-1V28a1,1,0,0,0,.781-.375l7.581-9.477C42.082,17.972,41.8,17.8,41.5,17.63Z" style="fill:#92563a"/><path d="M37.5,18a.5.5,0,0,0-1,0v4.274l1-1.25Z" style="fill:#ad8451"/><path d="M48,22.5H41.934l1.482-2.223a.5.5,0,0,0-.832-.554L40.732,22.5H38.881l-.8,1h2.651l1.852,2.777A.5.5,0,0,0,43,26.5a.494.494,0,0,0,.277-.084.5.5,0,0,0,.139-.693L41.934,23.5H48a.5.5,0,0,0,0-1Z" style="fill:#ad8451"/><path d="M26.5,21a.5.5,0,0,0-1,0v2.632l1,.5Z" style="fill:#ad8451"/><path d="M21.118,24.5l-1.894-.947a.5.5,0,1,0-.448.894l2,1A.516.516,0,0,0,21,25.5h3.764l-2-1Z" style="fill:#ad8451"/><path d="M31.447,18.224a.5.5,0,1,0-.894-.448l-1.26,2.52.508,1.221Z" style="fill:#ad8451"/><path d="M30,27V62a1,1,0,0,0,1,1h2a1,1,0,0,0,1-1V61a2,2,0,0,1-2-2V29a2,2,0,0,0-2-2Z" style="fill:#663823"/><path d="M13,13a2,2,0,0,0,1.468-.642C19.306,7.13,22.344,5,33.086,5c8.827,0,11.335,2.092,15.336,7.229a2,2,0,0,0,3.156-2.458c-.6-.772-1.184-1.487-1.763-2.149A26.175,26.175,0,0,0,32.3,1.011c-.329,0-.66.006-.978.014-.384.009-.767.019-1.146.043l-.411.019C21.68,1.708,14.783,5.672,11.031,11.3A1.982,1.982,0,0,0,13,13Z" style="fill:#8ecc00"/></g></svg>