<?xml version="1.0" encoding="iso-8859-1"?>
<!-- Generator: Adobe Illustrator 22.0.1, SVG Export Plug-In . SVG Version: 6.00 Build 0)  -->
<svg version="1.1" xmlns="http://www.w3.org/2000/svg" xmlns:xlink="http://www.w3.org/1999/xlink" x="0px" y="0px"
	 viewBox="0 0 64 64" style="enable-background:new 0 0 64 64;" xml:space="preserve">
<g id="_x33_">
	<path style="fill:#AAD15D;" d="M29.102,11.481c2.347-1.673,6.371-4.043,8.739-5.367l1.589,9.606l-4.81,7.349L29.102,11.481z
		 M51.228,0c-2.275,0.846-8.041,3.26-13.388,6.114l3.415,6.816L51.228,0z M26.267,35.831l-4.846-17.714
		c-0.723,0.874-2.684,3.236-3.29,4.162c-1.069,1.634-1.983,3.21-2.764,4.733l7.083,14.652L26.267,35.831z M28.402,32.569
		l4.083-6.239l-3.384-14.849c-2.235,1.694-5.828,4.632-7.681,6.636L28.402,32.569z M20.315,44.926l-4.948-17.913
		c-4.526,10.165-4.16,19.264,1.373,23.376L20.315,44.926z"/>
	<path style="fill:#90B74B;" d="M28.382,37.215l18.772-2.256c-0.511,1.013-1.891,3.754-2.497,4.68
		c-1.069,1.634-2.148,3.103-3.231,4.428l-16.861-1.019L28.382,37.215z M36.735,24.453l13.427,0.812
		c0.593-2.821,1.155-7.457,1.421-10.157l-10.038,1.996L36.735,24.453z M18.855,51.773c5.983,3.424,15.067,0.511,22.571-7.706
		L22.43,46.31L18.855,51.773z M51.228,0L43.37,14.314l8.212,0.793C52.058,9.066,51.364,2.424,51.228,0z M30.517,33.953l16.638,1.006
		c1.095-2.5,2.35-6.969,3.007-9.695L34.6,27.714L30.517,33.953z"/>
	<path style="display:none;fill:#90B74B;" d="M29.862,51.582c0,0-5.73,9.55-7.879,8.356c2.626,4.298,5.733,4.059,5.733,4.059
		l4.628-10.684L29.862,51.582z"/>
</g>
<g id="Layer_1">
</g>
</svg>
