<svg xmlns="http://www.w3.org/2000/svg" viewBox="0 0 64 64"><g id="_04-coconut_tree" data-name="04-coconut tree"><path d="M36,59v2a2.006,2.006,0,0,1-2,2H30a2.006,2.006,0,0,1-2-2V59Z" style="fill:#92563a"/><polygon points="35.67 51 35.83 55 28.17 55 28.33 51 35.67 51" style="fill:#92563a"/><polygon points="35.33 43 35.5 47 28.5 47 28.67 43 35.33 43" style="fill:#92563a"/><polygon points="35.83 55 36 59 28 59 28.17 55 35.83 55" style="fill:#c47952"/><polygon points="35.5 47 35.67 51 28.33 51 28.5 47 35.5 47" style="fill:#c47952"/><polygon points="35.17 39 35.33 43 28.67 43 28.83 38.99 29 39 35.17 39" style="fill:#c47952"/><polygon points="35 35 35.17 39 29 39 28.83 38.99 29 35 30 34 32 26 34 34 35 35" style="fill:#f2c373"/><path d="M30,34l-1,1-3,3-2-5,1,7-5,4s0-11.23,4.09-17.99C28.03,26.12,30,34,30,34Z" style="fill:#008f57"/><path d="M39.91,26.01C44,32.77,44,44,44,44l-5-4,1-7-2,5-3-3-1-1S35.97,26.12,39.91,26.01Z" style="fill:#008f57"/><path d="M44,12c7.19,0,14,7.16,14,16l-7-4s1-5,0-6l-2,5-3-2V16l-3,4-3-1-1-3-2,3-5,2a7.854,7.854,0,0,1,3.02-5.97A13.98,13.98,0,0,1,44,12Z" style="fill:#00c477"/><path d="M28.98,15.03A7.854,7.854,0,0,1,32,21l-5-2-2-3-1,3-3,1-3-4v5l-3,2-2-5c-1,1,0,6,0,6L6,28c0-8.84,6.81-16,14-16A13.98,13.98,0,0,1,28.98,15.03Z" style="fill:#00c477"/><path d="M38,11l-3,4,.02.03A7.854,7.854,0,0,0,32,21V18S33,1,47,1A13.382,13.382,0,0,1,57,5L49,7,46,5V8l-6,2L38,9Z" style="fill:#7bc24f"/><path d="M32,18v3a7.854,7.854,0,0,0-3.02-5.97L29,15l-3-4V9l-2,1L18,8V5L15,7,7,5A13.382,13.382,0,0,1,17,1C31,1,32,18,32,18Z" style="fill:#7bc24f"/><path d="M30.115,59.889,30.148,59H28v2a2.006,2.006,0,0,0,2,2h3.113A3,3,0,0,1,30.115,59.889Z" style="fill:#6f3529"/><polygon points="30.444 51 28.33 51 28.17 55 30.296 55 30.444 51" style="fill:#6f3529"/><polygon points="30.741 43 28.67 43 28.5 47 30.593 47 30.741 43" style="fill:#6f3529"/><polygon points="30.296 55 28.17 55 28 59 30.148 59 30.296 55" style="fill:#92563a"/><polygon points="30.593 47 28.5 47 28.33 51 30.444 51 30.593 47" style="fill:#92563a"/><polygon points="30.889 39 29 39 28.83 38.99 28.67 43 30.741 43 30.889 39" style="fill:#92563a"/><path d="M30.889,39l0-.111a3,3,0,0,1,3-2.889h1.151L35,35l-1-1-2-8-2,8-1,1-.17,3.99L29,39Z" style="fill:#bf9259"/><path d="M33.791,59a1.494,1.494,0,0,0,1.108.5c.026,0,.051,0,.077,0A1.494,1.494,0,0,0,36,59.018V59Z" style="fill:#c47952"/><polygon points="33.248 55 35.83 55 35.67 51 33.048 51 33.248 55" style="fill:#c47952"/><polygon points="32.848 47 35.5 47 35.33 43 32.648 43 32.848 47" style="fill:#c47952"/><path d="M33.4,58.075a1.487,1.487,0,0,0,.389.925H36l-.17-4H33.248Z" style="fill:#f09564"/><polygon points="33.048 51 35.67 51 35.5 47 32.848 47 33.048 51" style="fill:#f09564"/><path d="M34.024,40.5A1.5,1.5,0,0,0,32.6,42.075l.046.925H35.33l-.078-1.952A1.5,1.5,0,0,0,34.024,40.5Z" style="fill:#f09564"/><path d="M32,21v5l-2,8s-1.97-7.88-5.91-7.99C25.86,23.09,28.38,21,32,21Z" style="fill:#44853b"/><path d="M39.91,26.01C35.97,26.12,34,34,34,34l-2-8V21C35.62,21,38.14,23.09,39.91,26.01Z" style="fill:#44853b"/><path d="M34.937,8.18A3.606,3.606,0,0,1,38,9l2,1,6-2V5s-1.826-1.815-6.333-1.983A14.457,14.457,0,0,0,34.937,8.18Z" style="fill:#6cab46"/><path d="M34.937,8.18A25.53,25.53,0,0,0,32,18v3a7.854,7.854,0,0,1,3.02-5.97L35,15l3-4V9A3.606,3.606,0,0,0,34.937,8.18Z" style="fill:#538f2c"/><path d="M57,5A13.382,13.382,0,0,0,47,1a13.3,13.3,0,0,0-7.333,2.017C44.174,3.185,46,5,46,5l3,2Z" style="fill:#7bc24f"/><path d="M17,1A13.382,13.382,0,0,0,7,5l8,2,3-2s1.826-1.815,6.333-1.983A13.3,13.3,0,0,0,17,1Z" style="fill:#7bc24f"/><path d="M29.062,8.18A3.605,3.605,0,0,0,26,9v2l3,4-.02.03A7.854,7.854,0,0,1,32,21V18A25.521,25.521,0,0,0,29.062,8.18Z" style="fill:#538f2c"/><path d="M29.062,8.18a14.445,14.445,0,0,0-4.729-5.163C19.826,3.185,18,5,18,5V8l6,2,2-1A3.605,3.605,0,0,1,29.062,8.18Z" style="fill:#6cab46"/><path d="M44,12a15.09,15.09,0,0,0-6.114,1.254C39,13.976,39,16,39,16l1,3,3,1,3-4a9.991,9.991,0,0,0-.894-3.932A11.035,11.035,0,0,0,44,12Z" style="fill:#44853b"/><path d="M58,28a16.672,16.672,0,0,0-7.531-14.044A6.606,6.606,0,0,1,51,18c1,1,0,6,0,6Z" style="fill:#6cab46"/><path d="M37.886,13.254A12,12,0,0,0,35.02,15.03,7.854,7.854,0,0,0,32,21l5-2,2-3S39,13.976,37.886,13.254Z" style="fill:#406e31"/><path d="M50.469,13.956a12.472,12.472,0,0,0-5.363-1.888A9.991,9.991,0,0,1,46,16v5l3,2,2-5A6.606,6.606,0,0,0,50.469,13.956Z" style="fill:#4f9a44"/><path d="M13.656,13.881A16.656,16.656,0,0,0,6,28l7-4s-1-5,0-6A6.8,6.8,0,0,1,13.656,13.881Z" style="fill:#6cab46"/><path d="M13.656,13.881A6.8,6.8,0,0,0,13,18l2,5,3-2V16a10.108,10.108,0,0,1,.969-3.937A12.428,12.428,0,0,0,13.656,13.881Z" style="fill:#4f9a44"/><path d="M26.168,13.281A15.068,15.068,0,0,0,20,12c-.345,0-.688.031-1.031.063A10.108,10.108,0,0,0,18,16l3,4,3-1,1-3S25.073,14.027,26.168,13.281Z" style="fill:#44853b"/><path d="M28.98,15.03a11.96,11.96,0,0,0-2.812-1.749C25.073,14.027,25,16,25,16l2,3,5,2A7.854,7.854,0,0,0,28.98,15.03Z" style="fill:#406e31"/><path d="M24.09,26.01a24.187,24.187,0,0,0-2.474,6.06C23.99,32.3,24,33,24,33l2,5,3-3,1-1S28.03,26.12,24.09,26.01Z" style="fill:#4f9a44"/><path d="M21.616,32.07A51.43,51.43,0,0,0,20,44l5-4-1-7S23.99,32.3,21.616,32.07Z" style="fill:#6cab46"/><path d="M42.384,32.07a24.187,24.187,0,0,0-2.474-6.06C35.97,26.12,34,34,34,34l1,1,3,3,2-5S40.01,32.3,42.384,32.07Z" style="fill:#4f9a44"/><path d="M40,33l-1,7,5,4a51.43,51.43,0,0,0-1.616-11.93C40.01,32.3,40,33,40,33Z" style="fill:#6cab46"/></g></svg>