<svg xmlns="http://www.w3.org/2000/svg" viewBox="0 0 64 64"><g id="_08-tree" data-name="08-tree"><path d="M25,41.15a1,1,0,0,0,.84.99L29,43l.28.03c-.12,1.24-.26,2.57-.42,3.91L24.6,44.97A3.977,3.977,0,0,1,22,41.23V38.19A5.857,5.857,0,0,0,25,39Z" style="fill:#9a6948"/><path d="M45,36v5.23a3.977,3.977,0,0,1-2.6,3.74l-5.26,1.98c-.29-2.53-.55-5-.74-6.95H40a2.006,2.006,0,0,0,2-2V35.12h.52A3.905,3.905,0,0,0,45,36Z" style="fill:#9a6948"/><path d="M37.14,46.95c.58,5.33,1.29,10.96,1.78,12.79a1.89,1.89,0,0,1,.08.53v.88A1.852,1.852,0,0,1,37.15,63h-8.3A1.852,1.852,0,0,1,27,61.15v-.88a1.89,1.89,0,0,1,.08-.53c.49-1.83,1.2-7.47,1.78-12.8.16-1.34.3-2.67.42-3.91.34-3.17.6-5.77.69-6.68a5.682,5.682,0,0,0,.69-1.37c.11.01.22.02.34.02a5.954,5.954,0,0,0,5-2.7V36s.15,1.61.4,4C36.59,41.95,36.85,44.42,37.14,46.95Z" style="fill:#bf9259"/><path d="M36,32.3A5.954,5.954,0,0,1,31,35c-.12,0-.23-.01-.34-.02a5.682,5.682,0,0,1-.69,1.37A5.969,5.969,0,0,1,25,39a5.857,5.857,0,0,1-3-.81A5.985,5.985,0,0,1,19,33c0-.05.01-.1.01-.14A4.242,4.242,0,0,1,18,33a3.986,3.986,0,0,1-3.04-6.58,3.978,3.978,0,0,1-1.92-3A3.943,3.943,0,0,1,11,24a3.995,3.995,0,0,1-.63-7.94A6.07,6.07,0,0,1,10,14a6,6,0,0,1,6-6,6.07,6.07,0,0,1,2.06.37,3.982,3.982,0,0,1,6.1-2.73A6,6,0,0,1,36,7c0,.05-.01.1-.01.14A4.242,4.242,0,0,1,37,7a3.9,3.9,0,0,1,2.06.59A3.933,3.933,0,0,1,39,7a4,4,0,1,1,7.1,2.5A3.956,3.956,0,0,1,48,9a4,4,0,0,1,4,4,4.26,4.26,0,0,1-.16,1.07,5.991,5.991,0,0,1,1.81,11.31A3.955,3.955,0,0,1,54,27a4,4,0,0,1-4,4,3.8,3.8,0,0,1-1.21-.21A3.8,3.8,0,0,1,49,32a4,4,0,0,1-4,4,3.905,3.905,0,0,1-2.48-.88,3.637,3.637,0,0,1-.62-.62,3.945,3.945,0,0,1-5.74-2.45C36.11,32.13,36.06,32.22,36,32.3Z" style="fill:#5cb34f"/><path d="M33.285,60A3,3,0,0,1,30.3,56.728l1.6-17.567a1,1,0,0,1,1.1-.9,8.347,8.347,0,0,0,3.173-.522C36.061,36.654,36,36,36,36V32.3A5.954,5.954,0,0,1,31,35c-.12,0-.23-.01-.34-.02a5.682,5.682,0,0,1-.69,1.37c-.09.91-.35,3.51-.69,6.68-.12,1.24-.26,2.57-.42,3.91-.58,5.33-1.29,10.97-1.78,12.8a1.89,1.89,0,0,0-.08.53v.88A1.852,1.852,0,0,0,28.85,63h8.3A1.852,1.852,0,0,0,39,61.15v-.88a1.89,1.89,0,0,0-.08-.53c-.02-.073-.04-.162-.06-.247a1.979,1.979,0,0,1-1.3.507Z" style="fill:#ab7e4e"/><path d="M32.132,38.632A1,1,0,0,1,33,38.263a8.347,8.347,0,0,0,3.173-.522C36.061,36.654,36,36,36,36V32.3A5.954,5.954,0,0,1,31,35c-.12,0-.23-.01-.34-.02a5.682,5.682,0,0,1-.69,1.37c-.013.135-.032.319-.052.525A5,5,0,0,0,32.132,38.632Z" style="fill:#9a6948"/><path d="M25.84,42.14a1,1,0,0,1-.84-.99V39a5.857,5.857,0,0,1-3-.81V40.5l1.243.311a1,1,0,0,1,.757.97v.5a1,1,0,0,0,.684.949l.559.186A2,2,0,0,1,26.551,45.8l-.017.067L28.86,46.94c.16-1.34.3-2.67.42-3.91L29,43Z" style="fill:#714226"/><path d="M41.006,41.5l.479-.119A2,2,0,0,0,43,39.438,1.438,1.438,0,0,1,44.438,38H45V36a3.905,3.905,0,0,1-2.48-.88H42V38a2.006,2.006,0,0,1-2,2H36.4c.19,1.95.45,4.42.74,6.95L40.1,45.837l-.528-1.849A2,2,0,0,1,41.006,41.5Z" style="fill:#714226"/><path d="M34.249,38.2c-.168.023-.335.05-.5.061a100.385,100.385,0,0,0,1.819,20.7A8.376,8.376,0,0,1,35.694,60h.5a9.1,9.1,0,0,0-.136-1.135A100.054,100.054,0,0,1,34.249,38.2Z" style="fill:#f5bb72"/><path d="M32.446,38.383a.958.958,0,0,0-.487.565,169.683,169.683,0,0,1-.637,20.3,3.079,3.079,0,0,0,.471.337A170.012,170.012,0,0,0,32.446,38.383Z" style="fill:#f5bb72"/><path d="M36.184,45.255c-.08-.677-.176-1.352-.272-2.027-.073-.519-.147-1.037-.213-1.556-.157-1.224-.259-2.456-.334-3.691-.161.044-.328.078-.494.114.076,1.217.177,2.433.332,3.64.067.522.14,1.042.214,1.563.1.671.191,1.343.271,2.015.275,2.326.366,4.718.454,7.031.095,2.527.2,5.1.538,7.656h.5c-.345-2.553-.447-5.14-.543-7.675C36.553,50,36.462,47.6,36.184,45.255Z" style="fill:#f5bb72"/><path d="M57,20a5.987,5.987,0,0,0-5.16-5.93A4.26,4.26,0,0,0,52,13a4,4,0,0,0-.043-.428,5.075,5.075,0,0,1-2.905,3.959A3.2,3.2,0,0,1,49.36,17.9a3.489,3.489,0,0,1-4.585,3.191,3.066,3.066,0,0,1,.185,1.019,3.446,3.446,0,0,1-3.52,3.369,3.532,3.532,0,0,1-2.182-.741,3.143,3.143,0,0,1-.546-.522,3.606,3.606,0,0,1-1.672.421,3.481,3.481,0,0,1-3.379-2.485c-.044.068-.088.144-.141.211a5.3,5.3,0,0,1-4.4,2.274c-.106,0-.2-.009-.3-.017a4.723,4.723,0,0,1-.607,1.153,5.418,5.418,0,0,1-7.014,1.55,5.006,5.006,0,0,1-2.64-4.371c0-.042.009-.084.009-.118a3.862,3.862,0,0,1-.889.118,3.445,3.445,0,0,1-3.52-3.368,3.274,3.274,0,0,1,.845-2.173,3.341,3.341,0,0,1-1.69-2.526,3.587,3.587,0,0,1-1.795.488A3.637,3.637,0,0,1,10.1,15.08a6.459,6.459,0,0,0,.267.98A3.995,3.995,0,0,0,11,24a3.943,3.943,0,0,0,2.04-.58,3.978,3.978,0,0,0,1.92,3A3.986,3.986,0,0,0,18,33a4.242,4.242,0,0,0,1.01-.14c0,.04-.01.09-.01.14a5.985,5.985,0,0,0,3,5.19A5.857,5.857,0,0,0,25,39a5.969,5.969,0,0,0,4.97-2.65,5.682,5.682,0,0,0,.69-1.37c.11.01.22.02.34.02a5.954,5.954,0,0,0,5-2.7c.06-.08.11-.17.16-.25A3.945,3.945,0,0,0,41.9,34.5a3.637,3.637,0,0,0,.62.62A3.905,3.905,0,0,0,45,36a4,4,0,0,0,4-4,3.8,3.8,0,0,0-.21-1.21A3.8,3.8,0,0,0,50,31a4,4,0,0,0,4-4,3.955,3.955,0,0,0-.35-1.62A6.006,6.006,0,0,0,57,20Z" style="fill:#44853b"/><path d="M53.65,19.38A3.955,3.955,0,0,1,54,21a4,4,0,0,1-4,4,3.8,3.8,0,0,1-1.21-.21A3.8,3.8,0,0,1,49,26a4,4,0,0,1-4,4,3.905,3.905,0,0,1-2.48-.88,3.637,3.637,0,0,1-.62-.62,3.945,3.945,0,0,1-5.74-2.45c-.05.08-.1.17-.16.25A5.954,5.954,0,0,1,31,29c-.12,0-.23-.01-.34-.02a5.682,5.682,0,0,1-.69,1.37A5.969,5.969,0,0,1,25,33a5.857,5.857,0,0,1-3-.81A5.985,5.985,0,0,1,19,27c0-.05.01-.1.01-.14A4.242,4.242,0,0,1,18,27a3.986,3.986,0,0,1-3.04-6.58,3.978,3.978,0,0,1-1.92-3A3.911,3.911,0,0,1,8.38,17,3.956,3.956,0,0,0,7,20a4,4,0,0,0,4,4,3.943,3.943,0,0,0,2.04-.58,3.978,3.978,0,0,0,1.92,3A3.986,3.986,0,0,0,18,33a4.242,4.242,0,0,0,1.01-.14c0,.04-.01.09-.01.14a5.985,5.985,0,0,0,3,5.19A5.857,5.857,0,0,0,25,39a5.969,5.969,0,0,0,4.97-2.65,5.682,5.682,0,0,0,.69-1.37c.11.01.22.02.34.02a5.954,5.954,0,0,0,5-2.7c.06-.08.11-.17.16-.25A3.945,3.945,0,0,0,41.9,34.5a3.637,3.637,0,0,0,.62.62A3.905,3.905,0,0,0,45,36a4,4,0,0,0,4-4,3.8,3.8,0,0,0-.21-1.21A3.8,3.8,0,0,0,50,31a4,4,0,0,0,4-4,3.955,3.955,0,0,0-.35-1.62A5.977,5.977,0,0,0,56.183,17,6.044,6.044,0,0,1,53.65,19.38Z" style="fill:#406e31"/><path d="M20.745,8.482a2.581,2.581,0,0,0,1.19,1.938,2.635,2.635,0,0,0-.595,1.666,2.448,2.448,0,0,0,3.106,2.493c0,.026-.006.059-.006.091a3.9,3.9,0,0,0,1.86,3.352,3.521,3.521,0,0,0,1.86.523,3.664,3.664,0,0,0,3.081-1.711,3.733,3.733,0,0,0,.428-.885c.068.006.137.013.211.013a3.656,3.656,0,0,0,3.1-1.744c.037-.052.068-.11.1-.162a2.488,2.488,0,0,0,2.381,1.906,2.378,2.378,0,0,0,1.178-.323,2.467,2.467,0,0,0,1.922.969,2.533,2.533,0,0,0,2.48-2.584,2.569,2.569,0,0,0-.13-.782,2.272,2.272,0,0,0,.75.136,2.533,2.533,0,0,0,2.48-2.584,2.651,2.651,0,0,0-.217-1.046,3.726,3.726,0,0,0,.711-.489A4.422,4.422,0,0,0,46.1,9.5,3.993,3.993,0,1,0,39,7a3.933,3.933,0,0,0,.06.59A3.9,3.9,0,0,0,37,7a4.242,4.242,0,0,0-1.01.14c0-.04.01-.09.01-.14A6,6,0,0,0,24.16,5.64a3.982,3.982,0,0,0-6.1,2.73l-.029-.008a2.351,2.351,0,0,0,2.714.12Z" style="fill:#7bc24f"/><path d="M46.1,9.5A3.993,3.993,0,1,0,39,7a3.933,3.933,0,0,0,.06.59A3.9,3.9,0,0,0,37,7a4.242,4.242,0,0,0-1.01.14c0-.04.01-.09.01-.14A6,6,0,0,0,24.16,5.64a3.982,3.982,0,0,0-6.1,2.73A6.07,6.07,0,0,0,16,8a5.974,5.974,0,0,0-5.646,8h.457A6,6,0,0,1,16,13a6.07,6.07,0,0,1,2.06.37,3.982,3.982,0,0,1,6.1-2.73A6,6,0,0,1,36,12c0,.05-.01.1-.01.14A4.242,4.242,0,0,1,37,12a3.9,3.9,0,0,1,2.06.59A3.933,3.933,0,0,1,39,12a3.986,3.986,0,0,1,7.153-2.435l.434-.29A4.478,4.478,0,0,0,46.1,9.5Z" style="fill:#8ee05b"/></g></svg>