<svg xmlns="http://www.w3.org/2000/svg" viewBox="0 0 64 64"><g id="_17-tree" data-name="17-tree"><path d="M37.58,57.16a3.97,3.97,0,0,1,.33.93C36.9,59.06,35.23,60,32,60s-4.9-.94-5.91-1.91a3.97,3.97,0,0,1,.33-.93l.99-1.97A10.14,10.14,0,0,0,31,56h2a8.986,8.986,0,0,0,3.63-.73Z" style="fill:#845335"/><path d="M35,48.46a14.108,14.108,0,0,0,.22,2.51L35,51H29l-.22-.03A14.108,14.108,0,0,0,29,48.46V47h6Z" style="fill:#845335"/><path d="M32,60c3.23,0,4.9-.94,5.91-1.91a4.022,4.022,0,0,1,.09.85V61a2.006,2.006,0,0,1-2,2H28a2.006,2.006,0,0,1-2-2V58.94a4.022,4.022,0,0,1,.09-.85C27.1,59.06,28.77,60,32,60Z" style="fill:#a56645"/><path d="M36.58,55.17l.05.1A8.986,8.986,0,0,1,33,56H31a10.14,10.14,0,0,1-3.59-.81l.01-.02a14.964,14.964,0,0,0,1.36-4.2L29,51h6l.22-.03A14.964,14.964,0,0,0,36.58,55.17Z" style="fill:#a56645"/><path d="M35.16,43.22A7.606,7.606,0,0,0,35,44.79V47H29V44.79a7.606,7.606,0,0,0-.16-1.57l-.04-.18L29,43h6l.2.04Z" style="fill:#a56645"/><path d="M36,39l-.8,4.04L35,43H29l-.2.04L28,39l-.01-.01c.06-.09.13-.17.19-.25A17.734,17.734,0,0,0,32,27.66a17.734,17.734,0,0,0,3.82,11.08c.06.08.13.16.19.25Z" style="fill:#f2c373"/><path d="M25.92,24.14C25.45,24.96,23,29.39,23,33l-9,6s1.17-7.28,3.87-10.83A12.072,12.072,0,0,0,22,25l-.01-.1A19.406,19.406,0,0,0,25.92,24.14Z" style="fill:#00301e"/><path d="M50,39l-9-6c0-3.61-2.45-8.04-2.92-8.86a19.406,19.406,0,0,0,3.93.76L42,25a12.072,12.072,0,0,0,4.13,3.17C48.83,31.72,50,39,50,39Z" style="fill:#00301e"/><path d="M44,25a13.108,13.108,0,0,0-.68-1.86C48.25,25.25,54,31,54,31a36.907,36.907,0,0,1-7.87-2.83A12.072,12.072,0,0,1,42,25l.01-.1A18.807,18.807,0,0,0,44,25Z" style="fill:#004a2d"/><path d="M17.87,28.17A36.907,36.907,0,0,1,10,31s5.75-5.75,10.68-7.86A13.108,13.108,0,0,0,20,25a18.807,18.807,0,0,0,1.99-.1L22,25A12.072,12.072,0,0,1,17.87,28.17Z" style="fill:#004a2d"/><path d="M14.82,22A25.044,25.044,0,0,1,25,18l.02.02v.01a10.907,10.907,0,0,0-4.34,5.11C15.75,25.25,10,31,10,31A10.869,10.869,0,0,1,14.82,22Z" style="fill:#008f57"/><path d="M39,18a25.044,25.044,0,0,1,10.18,4A10.869,10.869,0,0,1,54,31s-5.75-5.75-10.68-7.86a10.985,10.985,0,0,0-4.33-5.11Z" style="fill:#008f57"/><path d="M42,18a110.545,110.545,0,0,1,18,2,42.294,42.294,0,0,1-10.82,2A25.044,25.044,0,0,0,39,18a7.027,7.027,0,0,0,2.76-.55Z" style="fill:#004a2d"/><path d="M25,18a25.044,25.044,0,0,0-10.18,4A42.294,42.294,0,0,1,4,20a110.545,110.545,0,0,1,18-2l.24-.55A7.027,7.027,0,0,0,25,18Z" style="fill:#004a2d"/><path d="M19.04,14.97a7.613,7.613,0,0,0,3.2,2.48L22,18A110.545,110.545,0,0,0,4,20c2.04-3.41,8.26-4.49,12.02-4.84C17.78,15,19,15,19,15Z" style="fill:#008f57"/><path d="M60,20a110.545,110.545,0,0,0-18-2l-.24-.55a7.613,7.613,0,0,0,3.2-2.48L45,15s1.22,0,2.98.16C51.74,15.51,57.96,16.59,60,20Z" style="fill:#008f57"/><path d="M44.96,14.97A.222.222,0,0,1,45,14.9l-.9-.62a7.248,7.248,0,0,0-3.11-1.22L41,13,56,9s-5,5-8,6l-.02.16C46.22,15,45,15,45,15Z" style="fill:#004a2d"/><path d="M8,9l15,4,.01.06a7.248,7.248,0,0,0-3.11,1.22l-.9.62a.222.222,0,0,1,.04.07L19,15s-1.22,0-2.98.16L16,15C13,14,8,9,8,9Z" style="fill:#00301e"/><path d="M23,13,8,9a17.574,17.574,0,0,1,5-1h2a11.836,11.836,0,0,1,3.98.99C20.1,10.93,21.48,12.62,23,13Z" style="fill:#00613b"/><path d="M56,9,41,13c1.52-.38,2.9-2.07,4.02-4.01A11.836,11.836,0,0,1,49,8h2A17.574,17.574,0,0,1,56,9Z" style="fill:#008f57"/><path d="M27,7v3a11.518,11.518,0,0,0-2.07-3.94L25,6V1c3,0,5,4,5,4l.24.1L29.1,7.77A3.246,3.246,0,0,0,27,7Z" style="fill:#008f57"/><path d="M39.07,6.06A11.518,11.518,0,0,0,37,10V7a3.246,3.246,0,0,0-2.1.77L33.76,5.1,34,5s2-4,5-4V6Z" style="fill:#008f57"/><path d="M33.76,5.1,34.9,7.77C32.63,9.57,32,14,32,14s-.63-4.43-2.9-6.23L30.24,5.1,32,1Z" style="fill:#00e088"/><path d="M33.75,5.077A14.12,14.12,0,0,0,32,10a14.12,14.12,0,0,0-1.75-4.923l-.01.023L29.1,7.77C31.37,9.57,32,14,32,14s.63-4.43,2.9-6.23L33.76,5.1Z" style="fill:#004a2d"/><path d="M23,13c-1.52-.38-2.9-2.07-4.02-4.01A37.9,37.9,0,0,1,16,2s8,6,11,11v.39a1.835,1.835,0,0,0,.06.47l-.06.01a3.186,3.186,0,0,0-1.31-.62,6.576,6.576,0,0,0-2.68-.19Z" style="fill:#004a2d"/><path d="M45.02,8.99C43.9,10.93,42.52,12.62,41,13l-.01.06a6.576,6.576,0,0,0-2.68.19,3.186,3.186,0,0,0-1.31.62l-.06-.01a1.835,1.835,0,0,0,.06-.47V13C40,8,48,2,48,2A37.9,37.9,0,0,1,45.02,8.99Z" style="fill:#004a2d"/><path d="M27,10v3C24,8,16,2,16,2a10.9,10.9,0,0,1,8.93,4.06A11.518,11.518,0,0,1,27,10Z" style="fill:#00613b"/><path d="M48,2S40,8,37,13V10a11.518,11.518,0,0,1,2.07-3.94A10.9,10.9,0,0,1,48,2Z" style="fill:#00613b"/><path d="M32,14v5l-1.43-.96L29,17l-1.66-2.5A2.061,2.061,0,0,1,27,13.39V7a3.246,3.246,0,0,1,2.1.77C31.37,9.57,32,14,32,14Z" style="fill:#009e60"/><path d="M27.34,14.5,29,17a7.956,7.956,0,0,0-3.98,1.02L25,18a7.027,7.027,0,0,1-2.76-.55,7.613,7.613,0,0,1-3.2-2.48A.222.222,0,0,0,19,14.9l.9-.62a7.248,7.248,0,0,1,3.11-1.22,6.576,6.576,0,0,1,2.68.19,3.186,3.186,0,0,1,1.31.62l.06-.01A1.838,1.838,0,0,0,27.34,14.5Z" style="fill:#007145"/><path d="M45,14.9a.222.222,0,0,0-.04.07,7.613,7.613,0,0,1-3.2,2.48A7.027,7.027,0,0,1,39,18l-.01.03A7.9,7.9,0,0,0,35,17l1.66-2.5a1.838,1.838,0,0,0,.28-.64l.06.01a3.186,3.186,0,0,1,1.31-.62,6.576,6.576,0,0,1,2.68-.19,7.248,7.248,0,0,1,3.11,1.22Z" style="fill:#007145"/><path d="M32,19a4.333,4.333,0,0,1-2.15,3.33,13.369,13.369,0,0,1-3.93,1.81,19.406,19.406,0,0,1-3.93.76A18.807,18.807,0,0,1,20,25s7.3-6.39,10.57-6.96Z" style="fill:#008f57"/><path d="M33.43,18.04C36.7,18.61,44,25,44,25a18.807,18.807,0,0,1-1.99-.1,19.406,19.406,0,0,1-3.93-.76,13.369,13.369,0,0,1-3.93-1.81,5.145,5.145,0,0,1-2-2.41A2.906,2.906,0,0,1,32,19Z" style="fill:#008f57"/><path d="M34.15,22.33C36.2,26.84,40,43,40,43c-1.16,0-2.63-2.27-3.99-4.01-.06-.09-.13-.17-.19-.25A17.734,17.734,0,0,1,32,27.66V20l.15-.08A5.145,5.145,0,0,0,34.15,22.33Z" style="fill:#007145"/><path d="M29.85,22.33C27.8,26.84,24,43,24,43a45.364,45.364,0,0,1-1-10c0-3.61,2.45-8.04,2.92-8.86A13.369,13.369,0,0,0,29.85,22.33Z" style="fill:#007145"/><path d="M32,20v7.66a17.734,17.734,0,0,1-3.82,11.08c-.06.08-.13.16-.19.25C26.63,40.73,25.16,43,24,43c0,0,3.8-16.16,5.85-20.67A4.333,4.333,0,0,0,32,19a2.906,2.906,0,0,0,.15.92Z" style="fill:#004a2d"/><path d="M41,33a45.364,45.364,0,0,1-1,10s-3.8-16.16-5.85-20.67a13.369,13.369,0,0,0,3.93,1.81C38.55,24.96,41,29.39,41,33Z" style="fill:#00c477"/><path d="M20.68,23.14a10.907,10.907,0,0,1,4.34-5.11v-.01A7.956,7.956,0,0,1,29,17l1.57,1.04C27.3,18.61,20,25,20,25A13.108,13.108,0,0,1,20.68,23.14Z" style="fill:#00c477"/><path d="M43.32,23.14A13.108,13.108,0,0,1,44,25s-7.3-6.39-10.57-6.96L35,17a7.9,7.9,0,0,1,3.99,1.03A10.985,10.985,0,0,1,43.32,23.14Z" style="fill:#00c477"/><path d="M37,7v6.39a2.061,2.061,0,0,1-.34,1.11L35,17l-1.57,1.04L32,19V14s.63-4.43,2.9-6.23A3.246,3.246,0,0,1,37,7Z" style="fill:#00c477"/><path d="M29,58.419a2.6,2.6,0,0,1,.132-.816l.577-1.73a11.964,11.964,0,0,1-2.3-.683l-.99,1.97a3.97,3.97,0,0,0-.33.93,6.577,6.577,0,0,0,3.282,1.645A2.553,2.553,0,0,1,29,58.419Z" style="fill:#452311"/><path d="M30.981,51c.008-.153.019-.307.019-.461V47H29v1.46a14.108,14.108,0,0,1-.22,2.51L29,51Z" style="fill:#452311"/><path d="M29.372,59.735A6.577,6.577,0,0,1,26.09,58.09a4.022,4.022,0,0,0-.09.85V61a2.006,2.006,0,0,0,2,2h8a2.006,2.006,0,0,0,2-2H31.581A2.57,2.57,0,0,1,29.372,59.735Z" style="fill:#5e3117"/><path d="M30.538,53.386A8.985,8.985,0,0,0,30.981,51H29l-.22-.03a14.964,14.964,0,0,1-1.36,4.2l-.01.02a11.964,11.964,0,0,0,2.3.683Z" style="fill:#5e3117"/><path d="M31,44l-.1-1H29l-.2.04.04.18A7.606,7.606,0,0,1,29,44.79V47h2Z" style="fill:#5e3117"/><path d="M35.82,38.74A17.734,17.734,0,0,1,32,27.66a17.981,17.981,0,0,1-1.841,7.929A17.106,17.106,0,0,1,28.18,38.74c-.06.08-.13.16-.19.25L28,39l.588,2.969L28.8,43.04,29,43h1.9l-.206-2.065a5.755,5.755,0,0,1,.51-2.979C31.716,36.846,32,36,32,36s1.315,3.944,3.412,5.969L36,39l.01-.01C35.95,38.9,35.88,38.82,35.82,38.74Z" style="fill:#bf9259"/></g></svg>