<svg xmlns="http://www.w3.org/2000/svg" viewBox="0 0 280 280" fill="none" shape-rendering="auto"><metadata xmlns:rdf="http://www.w3.org/1999/02/22-rdf-syntax-ns#" xmlns:xsi="http://www.w3.org/2001/XMLSchema-instance" xmlns:dc="http://purl.org/dc/elements/1.1/" xmlns:dcterms="http://purl.org/dc/terms/"><rdf:RDF><rdf:Description><dc:title>Avataaars</dc:title><dc:creator>Pablo Stanley</dc:creator><dc:source xsi:type="dcterms:URI">https://avataaars.com/</dc:source><dcterms:license xsi:type="dcterms:URI">https://avataaars.com/</dcterms:license><dc:rights>Remix of „Avataaars” (https://avataaars.com/) by „Pablo Stanley”, licensed under „Free for personal and commercial use” (https://avataaars.com/)</dc:rights></rdf:Description></rdf:RDF></metadata><mask id="viewboxMask"><rect width="280" height="280" rx="0" ry="0" x="0" y="0" fill="#fff" /></mask><g mask="url(#viewboxMask)"><g transform="translate(8)"><path d="M132 36a56 56 0 0 0-56 56v6.17A12 12 0 0 0 66 110v14a12 12 0 0 0 10.3 11.88 56.04 56.04 0 0 0 31.7 44.73v18.4h-4a72 72 0 0 0-72 72v9h200v-9a72 72 0 0 0-72-72h-4v-18.39a56.04 56.04 0 0 0 31.7-44.73A12 12 0 0 0 198 124v-14a12 12 0 0 0-10-11.83V92a56 56 0 0 0-56-56Z" fill="#ae5d29"/><path d="M108 180.61v8a55.79 55.79 0 0 0 24 5.39c8.59 0 16.73-1.93 24-5.39v-8a55.79 55.79 0 0 1-24 5.39 55.79 55.79 0 0 1-24-5.39Z" fill="#000" fill-opacity=".1"/><g transform="translate(0 170)"><path d="M92.68 29.94A72.02 72.02 0 0 0 32 101.05V110h200v-8.95a72.02 72.02 0 0 0-60.68-71.11 23.87 23.87 0 0 1-7.56 13.6l-29.08 26.23a4 4 0 0 1-5.36 0l-29.08-26.23a23.87 23.87 0 0 1-7.56-13.6Z" fill="#3c4f5c"/></g><g transform="translate(78 134)"><path fill-rule="evenodd" clip-rule="evenodd" d="M40 15a14 14 0 1 0 28 0" fill="#000" fill-opacity=".7"/></g><g transform="translate(104 122)"><path fill-rule="evenodd" clip-rule="evenodd" d="M16 8c0 4.42 5.37 8 12 8s12-3.58 12-8" fill="#000" fill-opacity=".16"/></g><g transform="translate(76 90)"><path d="M16.16 27.55c1.85 3.8 6 6.45 10.84 6.45 4.81 0 8.96-2.63 10.82-6.4.55-1.13-.24-2.05-1.03-1.37a15.05 15.05 0 0 1-9.8 3.43c-3.73 0-7.12-1.24-9.55-3.23-.9-.73-1.82.01-1.28 1.12ZM74.16 27.55c1.85 3.8 6 6.45 10.84 6.45 4.81 0 8.96-2.63 10.82-6.4.55-1.13-.24-2.05-1.03-1.37a15.05 15.05 0 0 1-9.8 3.43c-3.74 0-7.13-1.24-9.56-3.23-.9-.73-1.82.01-1.28 1.12Z" fill-rule="evenodd" clip-rule="evenodd" fill="#000" fill-opacity=".6"/></g><g transform="translate(76 82)"><path d="M15.98 17.13C17.48 7.6 30.06 1.1 39.16 5.3a2 2 0 1 0 1.68-3.63c-11.5-5.3-26.9 2.66-28.82 14.84a2 2 0 0 0 3.96.63ZM96.02 17.13C94.52 7.6 81.94 1.1 72.84 5.3a2 2 0 1 1-1.68-3.63c11.5-5.3 26.9 2.66 28.82 14.84a2 2 0 0 1-3.96.63Z" fill="#000" fill-opacity=".6"/></g><g transform="translate(-1)"><path d="M133 18a74 74 0 0 0-74 74v96c0 8.56 1.45 16.78 4.12 24.42A71.67 71.67 0 0 1 105 199h4v-18.39a56.03 56.03 0 0 1-31.8-45.74A12 12 0 0 1 67 123v-13a12 12 0 0 1 .46-3.3c17.13-6.02 33.75-21.94 43.59-44.04.4-.92.8-1.84 1.18-2.76 4.58 12.23 13.21 21.11 25.89 26.63a87.36 87.36 0 0 1-12.45-20.78c7.98 8.5 18.35 16.74 30.48 23.75 14.33 8.27 28.91 13.56 41.87 15.75.63 1.45.98 3.06.98 4.75v13a12 12 0 0 1-10.2 11.87A56.03 56.03 0 0 1 157 180.6V199h4a71.67 71.67 0 0 1 41.88 13.42A73.9 73.9 0 0 0 207 188V92a74 74 0 0 0-74-74Z" fill="#a55728"/><path d="M111.05 62.66C99.59 88.39 78.95 105.75 59 108.84v4c19.95-3.1 40.59-20.45 52.05-46.18.4-.92.8-1.84 1.18-2.76 4.58 12.23 13.21 21.11 25.89 26.63a78.16 78.16 0 0 1-4.62-6.26c-10.18-5.56-17.27-13.69-21.27-24.37a98.8 98.8 0 0 1-1.18 2.76ZM129.5 73.64a137.34 137.34 0 0 0 26.65 19.86c17.75 10.25 35.9 15.91 50.85 16.78v-4c-14.95-.87-33.1-6.54-50.85-16.78-12.13-7-22.5-15.24-30.48-23.75a98.3 98.3 0 0 0 3.83 7.89Z" fill="#000" fill-opacity=".16"/></g><g transform="translate(49 72)"></g><g transform="translate(62 42)"><path fill-rule="evenodd" clip-rule="evenodd" d="M94.4 4.78c-3.08-3.09-6.28 3.86-7.78 5.65-3.6 4.32-7.08 8.75-10.75 13.02-7.25 8.43-14.43 16.92-21.64 25.4-1.09 1.28-.96 1.41-2.4 1.54-.94.08-2.27-.4-3.26-.46-2.75-.16-5.46.3-8.13.9-5.35 1.17-11.01 3.1-15.65 6.07-1.22.78-2 1.7-3.32 1.94-1.15.21-2.68-.21-3.85-.32-2.08-.2-5.08-1.05-7.12-.6-2.6.55-3.58 3.7-.94 5.08 2.01 1.06 6.01.48 8.26.64 2.58.2 1.8.06 1.43 2.52-.53 3.54.35 7.49 1.84 10.72 3.46 7.5 13.03 15.46 21.77 14.72 7.28-.6 13.67-7.19 16.66-13.5a30.75 30.75 0 0 0 2.73-10.47c.19-2.27.08-4.67-.57-6.87a16.5 16.5 0 0 0-1.37-3.2c-.44-.79-2.4-2.64-2.52-3.44-.23-1.56 4.18-5.73 5.03-6.78 3.97-4.91 7.96-9.8 11.9-14.75 3.88-4.87 7.79-9.73 11.77-14.51 1.8-2.17 10.83-10.37 7.9-13.3" fill="#28354B"/></g></g></g></svg>